<svg xmlns="http://www.w3.org/2000/svg" width="29" height="29" viewBox="0 0 29 29"><defs><clipPath id="z3qwa"><path fill="#fff" d="M14.472.125c7.767 0 14.063 6.334 14.063 14.148s-6.296 14.149-14.063 14.149S.409 22.087.409 14.273C.41 6.46 6.705.125 14.472.125z"/></clipPath></defs><g><g><path fill="#fff" d="M14.472.125c7.767 0 14.063 6.334 14.063 14.148s-6.296 14.149-14.063 14.149S.409 22.087.409 14.273C.41 6.46 6.705.125 14.472.125z"/><path fill="none" stroke="#1e1e1e" stroke-linecap="round" stroke-linejoin="round" stroke-miterlimit="50" stroke-width="4" d="M14.472.125c7.767 0 14.063 6.334 14.063 14.148s-6.296 14.149-14.063 14.149S.409 22.087.409 14.273C.41 6.46 6.705.125 14.472.125z" clip-path="url(&quot;#z3qwa&quot;)"/></g></g></svg>