<svg xmlns="http://www.w3.org/2000/svg" width="29" height="29" viewBox="0 0 29 29"><defs><clipPath id="zdb3a"><path fill="#fff" d="M14.313.125c7.766 0 14.062 6.334 14.062 14.148S22.08 28.422 14.313 28.422C6.546 28.422.25 22.087.25 14.273.25 6.46 6.546.125 14.313.125z"/></clipPath></defs><g><g><path fill="#fff" d="M14.313.125c7.766 0 14.062 6.334 14.062 14.148S22.08 28.422 14.313 28.422C6.546 28.422.25 22.087.25 14.273.25 6.46 6.546.125 14.313.125z"/><path fill="none" stroke="#1e1e1e" stroke-linecap="round" stroke-linejoin="round" stroke-miterlimit="50" stroke-width="4" d="M14.313.125c7.766 0 14.062 6.334 14.062 14.148S22.08 28.422 14.313 28.422C6.546 28.422.25 22.087.25 14.273.25 6.46 6.546.125 14.313.125z" clip-path="url(&quot;#zdb3a&quot;)"/></g></g></svg>